<?xml version="1.0" standalone="no"?>
<!DOCTYPE svg PUBLIC "-//W3C//DTD SVG 20010904//EN"
 "http://www.w3.org/TR/2001/REC-SVG-20010904/DTD/svg10.dtd">
<svg version="1.0" xmlns="http://www.w3.org/2000/svg"
 width="1024.000000pt" height="1024.000000pt" viewBox="0 0 1024.000000 1024.000000"
 preserveAspectRatio="xMidYMid meet">

<g transform="translate(0.000000,1024.000000) scale(0.100000,-0.100000)"
fill="#000000" stroke="none">
<path d="M3170 7681 c-329 -70 -619 -327 -731 -648 -56 -162 -53 -42 -56
-1883 -4 -1713 -3 -1800 32 -1935 33 -129 131 -298 239 -413 243 -259 683
-396 810 -253 29 32 33 117 7 158 -11 17 -82 79 -158 136 -76 57 -168 132
-205 166 -128 118 -227 278 -247 397 -9 50 -11 521 -9 1749 l3 1680 24 60 c49
123 142 227 258 286 123 63 19 60 1993 57 l1795 -3 59 -23 c83 -31 143 -68
203 -125 67 -63 105 -124 135 -212 l23 -70 0 -1540 0 -1540 -24 -52 c-26 -58
-87 -120 -148 -152 -101 -51 -100 -51 -985 -51 -894 0 -877 1 -958 -55 -20
-14 -49 -48 -64 -74 l-26 -49 0 -336 c0 -373 2 -383 62 -430 66 -50 216 -54
291 -7 57 35 66 66 70 248 3 182 9 201 78 235 31 17 88 18 749 18 681 0 719 1
799 20 312 75 535 291 597 580 11 54 14 335 14 1646 0 1061 -3 1600 -11 1640
-68 384 -392 703 -790 779 -71 13 -307 15 -1913 14 -1722 0 -1836 -1 -1916
-18z m3904 -24 c380 -119 650 -412 706 -767 6 -42 10 -608 10 -1622 0 -1668 1
-1625 -50 -1760 -67 -180 -236 -342 -433 -419 -154 -59 -147 -59 -927 -59
-799 0 -762 3 -805 -70 -17 -30 -21 -58 -25 -201 -6 -186 -12 -204 -80 -239
-29 -15 -59 -20 -115 -20 -77 0 -122 13 -160 47 -44 38 -46 61 -43 420 l3 341
30 44 c19 26 52 55 85 73 l55 30 870 5 c863 5 870 5 927 27 76 29 142 75 179
126 63 87 60 -7 57 1678 l-3 1534 -23 59 c-51 135 -137 235 -258 298 -137 72
-3 68 -1979 68 -1956 0 -1840 3 -1967 -61 -79 -40 -180 -137 -224 -214 -69
-124 -65 1 -62 -1886 3 -1908 -5 -1718 79 -1866 60 -105 201 -250 363 -372
172 -131 188 -147 194 -211 4 -49 3 -52 -37 -90 -25 -24 -55 -42 -77 -46 -97
-18 -315 37 -451 113 -198 110 -374 305 -451 501 -70 178 -65 43 -69 1832 -5
1838 -3 1891 53 2060 115 348 417 610 771 670 26 4 885 7 1908 6 l1860 -1 89
-28z"/>
<path d="M3546 6745 c-69 -28 -119 -66 -163 -124 -67 -86 -63 10 -63 -1641 0
-961 4 -1517 10 -1551 26 -142 141 -286 280 -351 101 -49 155 -58 333 -59 174
0 211 -9 244 -58 21 -31 23 -45 23 -170 0 -193 22 -254 102 -286 45 -17 182
-20 225 -4 44 16 90 67 103 113 8 30 11 134 8 347 -3 342 -6 358 -83 432 -71
69 -112 77 -393 77 -223 0 -251 2 -290 20 -33 15 -47 29 -62 62 -19 42 -20 77
-20 1358 0 1024 3 1320 13 1339 6 13 25 34 40 45 l28 21 1225 0 1224 0 37 -38
38 -37 3 -773 c2 -746 2 -774 -17 -837 -50 -163 -194 -302 -356 -345 -49 -12
-133 -15 -475 -15 -379 0 -421 2 -482 19 -99 29 -165 68 -244 146 -74 74 -115
142 -139 236 -21 79 -21 559 0 618 23 66 54 102 111 128 52 24 54 24 343 21
274 -3 291 -4 317 -24 60 -44 68 -66 72 -185 7 -182 -35 -246 -190 -293 -99
-30 -120 -44 -142 -90 -25 -53 -22 -171 7 -220 34 -60 74 -76 187 -76 172 0
288 47 405 165 78 78 125 163 150 268 18 76 21 439 4 519 -34 161 -170 310
-339 370 -63 22 -77 23 -444 26 -418 3 -464 -1 -581 -57 -160 -76 -290 -227
-342 -396 -16 -53 -18 -100 -18 -430 0 -418 3 -440 74 -605 133 -309 409 -539
713 -597 63 -11 170 -14 570 -11 l493 3 92 32 c162 57 262 118 376 230 145
143 244 320 294 525 17 67 18 147 18 988 l0 915 -29 58 c-42 83 -88 132 -164
174 l-67 38 -1500 2 -1500 3 -59 -25z m3099 -15 c68 -34 145 -113 181 -185
l29 -60 0 -895 c0 -988 2 -961 -64 -1135 -96 -255 -304 -482 -524 -572 -168
-69 -145 -67 -678 -71 -451 -3 -492 -2 -581 16 -282 58 -529 260 -668 546 -87
180 -92 211 -97 593 -4 281 -2 345 12 415 48 242 223 427 461 488 70 18 112
20 429 20 384 0 439 -6 552 -63 111 -57 215 -188 248 -313 21 -81 21 -433 0
-523 -23 -98 -70 -185 -137 -257 -114 -122 -238 -174 -413 -174 -99 0 -138 15
-171 65 -24 37 -31 159 -11 207 19 46 45 63 140 92 90 28 152 74 178 130 14
32 19 66 19 151 0 139 -19 186 -90 222 -43 22 -55 23 -325 25 -314 2 -326 0
-398 -70 -61 -59 -67 -96 -67 -393 0 -276 6 -329 49 -419 30 -65 136 -180 206
-225 114 -73 143 -78 425 -85 140 -3 350 -3 465 0 188 5 216 8 267 29 134 53
259 174 311 301 l22 55 3 790 c2 775 2 791 -18 823 -11 18 -34 41 -52 52 -32
20 -53 20 -1248 20 -1187 0 -1216 -1 -1247 -20 -67 -41 -63 59 -63 -1399 0
-1473 -5 -1378 69 -1423 35 -22 47 -23 311 -28 247 -5 279 -7 315 -25 55 -27
122 -99 135 -143 6 -22 10 -169 10 -357 0 -368 -1 -373 -80 -413 -59 -29 -188
-31 -240 -3 -69 37 -74 53 -80 241 -5 183 -9 196 -74 244 -25 19 -47 22 -224
27 -212 7 -231 11 -343 71 -129 68 -228 208 -249 353 -7 47 -10 567 -8 1565 3
1435 4 1497 22 1535 41 88 124 161 219 190 34 11 314 13 1532 12 l1490 -2 50
-25z"/>
</g>
</svg>
