<?xml version="1.0" encoding="UTF-8"?>
<svg xmlns="http://www.w3.org/2000/svg" viewBox="0 0 48 48" aria-hidden="true" focusable="false">
  <title>Google</title>
  <path fill="#FFC107" d="M43.6 20.5H42V20H24v8h11.3c-1.8 5.1-6.6 8-11.3 8-6.6 0-12-5.4-12-12s5.4-12 12-12c3.1 0 6 1.2 8 3.2l5.7-5.7C33.1 5 28.8 3 24 3 12.9 3 4 11.9 4 23s8.9 20 20 20c11.6 0 19.3-8.2 19.3-19.8 0-1.3-.1-2.2-.3-2.7z"/>
  <path fill="#FF3D00" d="M6.3 14.7l6.6 4.8C14.6 16 19.3 12 24 12c3.1 0 6 1.2 8 3.2l5.7-5.7C33.1 5 28.8 3 24 3 16.5 3 9.9 7.1 6.3 14.7z"/>
  <path fill="#4CAF50" d="M24 43c5.4 0 9.9-1.8 13.2-4.9l-6.1-5.2c-1.8 1.3-4.2 2.1-7.1 2.1-4.7 0-9.4-3.9-10.9-9.1l-6.5 5C9.9 38.9 16.5 43 24 43z"/>
  <path fill="#1976D2" d="M43.6 20.5H42V20H24v8h11.3c-1.1 3.2-3.6 5.5-6.2 6.9l6.1 5.2C37.5 39.1 43.3 35 43.3 23.2c0-1.3-.1-2.2-.3-2.7z"/>
</svg>

